<?xml version="1.0" encoding="utf-8"?>
<!-- Generator: Adobe Illustrator 21.1.0, SVG Export Plug-In . SVG Version: 6.00 Build 0)  -->
<svg version="1.1" id="Layer_1" xmlns="http://www.w3.org/2000/svg" xmlns:xlink="http://www.w3.org/1999/xlink" x="0px" y="0px"
	 viewBox="0 0 72 72" style="enable-background:new 0 0 72 72;" xml:space="preserve">
<g>
	<g>
		<path d="M22.1,55.5c0-13,0-26,0-39c0.2,0,0.3,0,0.5,0c3.8,0,7.5,0,11.3,0c3.5,0,6.9,0.8,9.9,2.6c2.9,1.8,5,4.4,6.4,7.5
			c1.1,2.6,1.6,5.3,1.7,8.1c0.1,2.8,0,5.7-0.9,8.4c-2,6.4-6.2,10.4-12.7,11.8c-1.4,0.3-2.8,0.4-4.2,0.5c-3.8,0.1-7.7,0-11.5,0
			C22.4,55.5,22.3,55.5,22.1,55.5z M30.2,23c0,8.7,0,17.4,0,26c1.5,0,3,0,4.4,0c0.6,0,1.3-0.1,1.9-0.2c2.6-0.5,4.5-2,5.7-4.3
			c1-1.9,1.4-3.9,1.5-5.9c0.1-1.6,0.1-3.3,0-4.9c-0.1-2-0.4-3.9-1.2-5.7c-1.1-2.4-2.9-4-5.6-4.7C34.7,22.8,32.4,23.1,30.2,23z"/>
	</g>
	<path d="M59.1,8.3v55.4H12.9V8.3H59.1 M67.4,0h-8.3H12.9H4.6v8.3v55.4V72h8.3h46.2h8.3v-8.3V8.3V0L67.4,0z"/>
</g>
</svg>
