<?xml version="1.0" standalone="no"?>
<!DOCTYPE svg PUBLIC "-//W3C//DTD SVG 20010904//EN"
 "http://www.w3.org/TR/2001/REC-SVG-20010904/DTD/svg10.dtd">
<svg version="1.0" xmlns="http://www.w3.org/2000/svg"
 width="700.000000pt" height="700.000000pt" viewBox="0 0 700.000000 700.000000"
 preserveAspectRatio="xMidYMid meet">
<metadata>
Created by potrace 1.11, written by Peter Selinger 2001-2013
</metadata>
<g transform="translate(0.000000,700.000000) scale(0.100000,-0.100000)"
fill="#000000" stroke="none">
<path d="M449 6963 c0 -21 -1 -1595 -1 -3498 l-1 -3460 3052 -3 3051 -2 1 22
c0 29 0 6784 -1 6896 l0 82 -3050 0 -3050 0 -1 -37z m5296 -3461 c1 -1854 -2
-2692 -10 -2693 -14 -1 -4434 -1 -4460 0 l-20 1 0 2688 -1 2687 25 5 c14 3
1024 5 2245 4 l2221 0 0 -2692z"/>
<path d="M2054 5385 c-2 -5 -3 -858 -2 -1895 l3 -1885 22 3 c11 2 295 4 630 6
334 2 622 6 638 9 17 3 62 8 100 12 39 3 77 8 85 10 8 2 32 6 52 9 116 17 326
86 464 153 188 90 404 267 526 430 42 55 168 256 168 267 0 2 15 37 34 78 42
89 108 286 130 388 34 155 44 289 41 540 -3 215 -8 316 -19 370 -1 8 -6 38
-10 65 -26 178 -92 385 -176 551 -176 350 -456 616 -790 753 -30 12 -64 26
-75 31 -84 37 -313 89 -475 106 -108 12 -1342 11 -1346 -1z m1282 -629 c39 -4
80 -8 90 -10 11 -2 36 -6 56 -10 114 -21 287 -116 381 -209 134 -135 233 -350
263 -572 3 -27 8 -53 10 -57 23 -37 23 -687 0 -803 -2 -11 -7 -40 -10 -65 -4
-25 -16 -76 -27 -115 -100 -346 -288 -557 -571 -639 -109 -31 -197 -39 -466
-40 l-222 -1 0 55 c-3 404 0 2461 3 2467 6 9 391 9 493 -1z"/>
</g>
</svg>
